<svg  xmlns="http://www.w3.org/2000/svg" style="display: none;">
    <symbol id="apps" width="32" height="32">
        <g>
            <title>background</title>
            <rect fill="none" id="canvas_background" height="402" width="582" y="-1" x="-1"/>
        </g>
        <g>
            <title>Layer 1</title>
            <path id="svg_2" fill="#9b9b9b" d="m15.42,7.221c0,-0.951 -0.771,-1.721 -1.721,-1.721l-6.97,0c-0.951,0 -1.721,0.771 -1.721,1.721l0,6.103c0,0.951 0.771,1.721 1.721,1.721l6.971,0c0.951,0 1.721,-0.771 1.721,-1.721l0,-6.103l-0.001,0z"/>
            <path id="svg_3" fill="#9b9b9b" d="m27.742,7.221c0,-0.951 -0.77,-1.721 -1.721,-1.721l-6.971,0c-0.951,0 -1.721,0.771 -1.721,1.721l0,6.103c0,0.951 0.77,1.721 1.721,1.721l6.971,0c0.951,0 1.721,-0.771 1.721,-1.721l0,-6.103z"/>
            <path id="svg_4" fill="#9b9b9b" d="m15.42,18.676c0,-0.951 -0.771,-1.721 -1.721,-1.721l-6.97,0c-0.951,0 -1.721,0.77 -1.721,1.721l0,6.104c0,0.95 0.771,1.721 1.721,1.721l6.971,0c0.951,0 1.721,-0.771 1.721,-1.721l0,-6.104l-0.001,0z"/>
            <path id="svg_5" fill="#9b9b9b" d="m27.742,18.676c0,-0.951 -0.77,-1.721 -1.721,-1.721l-6.971,0c-0.951,0 -1.721,0.77 -1.721,1.721l0,6.104c0,0.95 0.77,1.721 1.721,1.721l6.971,0c0.951,0 1.721,-0.771 1.721,-1.721l0,-6.104z"/>
        </g>
    </symbol>
 
</svg>