<svg width="32" height="32" xmlns="http://www.w3.org/2000/svg">

 <g>
  <title>background</title>
  <rect fill="none" id="canvas_background" height="402" width="582" y="0" x="0"/>
 </g>
 <g>
  <title>Layer 1</title>
  <path fill="#9b9b9b" id="svg_2" d="m14.977,11.981c1.746,-3.062 1.319,-7.022 -1.291,-9.634c-3.132,-3.131 -8.206,-3.13 -11.337,0c-3.131,3.13 -3.131,8.206 0,11.336c2.572,2.573 6.457,3.027 9.498,1.371l4.512,4.513l3.102,-3.104l-4.484,-4.482zm-3.109,-0.116c-2.127,2.127 -5.575,2.127 -7.701,0c-2.127,-2.125 -2.127,-5.573 0,-7.699c2.126,-2.127 5.574,-2.127 7.701,0c2.126,2.126 2.126,5.574 0,7.699z"/>
  <path fill="#9b9b9b" id="svg_3" d="m28.188,23.466l-5.775,-5.775c-0.471,-0.472 -1.241,-0.472 -1.711,0l-3.209,3.208c-0.471,0.471 -0.471,1.241 0,1.711l5.775,5.774c0.471,0.472 1.239,0.472 1.711,0l3.209,-3.207c0.468,-0.473 0.468,-1.241 0,-1.711z"/>
 </g>
</svg>