<svg width="32" height="32" xmlns="http://www.w3.org/2000/svg">

 <g>
  <title>background</title>
  <rect fill="none" id="canvas_background" height="402" width="582" y="-1" x="-1"/>
 </g>
 <g>
  <title>Layer 1</title>
  <path id="svg_2" fill="#efeeec" d="m25.695,9.43c0,0.771 -0.631,1.401 -1.402,1.401l-15.418,0c-0.771,0 -1.402,-0.63 -1.402,-1.401l0,-2.278c0,-0.771 0.631,-1.402 1.402,-1.402l15.418,0c0.771,0 1.402,0.631 1.402,1.402l0,2.278z"/>
  <path id="svg_3" fill="#efeeec" d="m25.695,24.848c0,0.771 -0.631,1.402 -1.402,1.402l-15.418,0c-0.771,0 -1.402,-0.631 -1.402,-1.402l0,-2.278c0,-0.771 0.631,-1.401 1.402,-1.401l15.418,0c0.771,0 1.402,0.63 1.402,1.401l0,2.278z"/>
  <path id="svg_4" fill="#efeeec" d="m25.695,17.139c0,0.771 -0.631,1.402 -1.402,1.402l-15.418,0c-0.771,0 -1.402,-0.631 -1.402,-1.402l0,-2.277c0,-0.771 0.631,-1.402 1.402,-1.402l15.418,0c0.771,0 1.402,0.631 1.402,1.402l0,2.277z"/>
 </g>
</svg>